# xmcd CD database file
#
# Track frame offsets:
#	150
#	26315
#	60705
#	88610
#	120542
#	144625
#	176532
#	202022
#	233527
#
# Disc length: 3426 seconds
#
# Revision: 0
# Processed by: cddbd v1.5PL3 Copyright (c) Steve Scherf et al.
# Submitted via: CDex 1.50
#
DISCID=710d6009
DTITLE=Ceder Walton TRIO - MOSAIC
DYEAR=1900
DGENRE=Jazz
TTITLE0=MOSAIC
TTITLE1=YESTERDAYS
TTITLE2=THAT OLD FEELING
TTITLE3=BLUE MOON
TTITLE4=UP JUMPED SPRING
TTITLE5=WHISPER NOT
TTITLE6=THREE BLIND MICE
TTITLE7=CARAVAN
TTITLE8=MOANIN'
EXTD=
EXTT0=
EXTT1=
EXTT2=
EXTT3=
EXTT4=
EXTT5=
EXTT6=
EXTT7=
EXTT8=
PLAYORDER=
